<?xml version="1.0" standalone="no"?>
<!DOCTYPE svg PUBLIC "-//W3C//DTD SVG 20010904//EN"
 "http://www.w3.org/TR/2001/REC-SVG-20010904/DTD/svg10.dtd">
<svg version="1.0" xmlns="http://www.w3.org/2000/svg"
 width="512.000000pt" height="512.000000pt" viewBox="0 0 512.000000 512.000000"
 preserveAspectRatio="xMidYMid meet">

<g transform="translate(0.000000,512.000000) scale(0.100000,-0.100000)"
fill="#000000" stroke="none">
<path d="M2323 4978 l-232 -140 -411 137 c-226 75 -413 135 -416 132 -3 -2 72
-210 166 -461 94 -251 170 -461 168 -465 -2 -5 -30 -29 -64 -54 -220 -161
-236 -506 -31 -689 38 -34 40 -38 25 -55 -8 -10 -168 -189 -353 -398 -393
-442 -437 -495 -510 -620 -263 -447 -283 -980 -53 -1465 231 -490 670 -815
1195 -885 134 -18 1336 -22 1473 -4 200 24 349 68 515 152 451 225 755 644
852 1172 20 111 23 378 4 485 -43 253 -140 484 -283 677 -29 39 -208 245 -397
459 -190 213 -356 400 -369 415 l-24 29 49 47 c98 96 138 201 131 347 -3 77
-9 102 -36 160 -41 88 -87 145 -152 186 -27 18 -50 37 -50 43 0 6 77 215 170
465 94 250 169 457 166 459 -3 3 -189 -56 -415 -132 l-410 -136 -235 140
c-129 78 -236 141 -238 140 -1 0 -107 -64 -235 -141z m454 -339 l218 -132 183
61 c100 33 182 59 182 58 0 -1 -33 -92 -74 -202 l-74 -199 -652 0 -652 0 -74
199 c-41 110 -74 201 -74 202 0 1 83 -25 183 -58 l184 -59 214 130 c118 71
215 130 216 130 1 1 100 -58 220 -130z m614 -747 c92 -56 92 -198 0 -254 l-36
-23 -795 0 -795 0 -36 23 c-112 69 -83 241 46 273 16 4 379 7 805 6 l775 -2
36 -23z m255 -1029 c220 -245 423 -476 452 -512 293 -365 350 -873 147 -1308
-178 -382 -500 -638 -902 -720 -80 -16 -155 -18 -783 -18 -628 0 -703 2 -783
18 -252 51 -452 160 -638 346 -254 254 -383 564 -382 921 0 159 14 244 64 394
71 214 121 281 628 850 l423 476 688 0 688 0 398 -447z"/>
<path d="M2410 2861 l0 -148 -92 -6 c-152 -9 -271 -61 -362 -157 -221 -232
-185 -615 76 -797 83 -58 163 -84 281 -90 l97 -6 0 -228 0 -229 -225 0 -225 0
0 -150 0 -150 225 0 225 0 0 -150 0 -150 150 0 150 0 0 148 0 148 103 11 c119
13 193 38 280 96 185 124 264 388 184 610 -76 210 -237 324 -484 343 l-83 7 0
223 0 224 225 0 225 0 0 150 0 150 -225 0 -225 0 0 150 0 150 -150 0 -150 0 0
-149z m0 -676 l0 -225 -62 0 c-68 0 -148 30 -180 66 -38 43 -61 115 -55 174
11 130 100 207 240 209 l57 1 0 -225z m469 -551 c134 -53 173 -238 75 -353
-40 -46 -90 -68 -178 -77 l-66 -7 0 233 0 233 64 -6 c34 -3 82 -13 105 -23z"/>
</g>
</svg>
