<?xml version="1.0" standalone="no"?>
<!DOCTYPE svg PUBLIC "-//W3C//DTD SVG 20010904//EN"
 "http://www.w3.org/TR/2001/REC-SVG-20010904/DTD/svg10.dtd">
<svg version="1.0" xmlns="http://www.w3.org/2000/svg"
 width="512.000000pt" height="512.000000pt" viewBox="0 0 512.000000 512.000000"
 preserveAspectRatio="xMidYMid meet">

<g transform="translate(0.000000,512.000000) scale(0.100000,-0.100000)"
fill="#000000" stroke="none">
<path d="M47 5039 c-47 -28 -47 -20 -47 -788 l0 -721 29 -32 29 -33 461 -3
461 -3 0 -1591 c0 -1220 3 -1600 12 -1632 16 -55 99 -138 154 -154 32 -9 367
-12 1420 -12 l1379 0 51 24 c59 27 116 90 132 145 9 28 12 451 12 1629 l0
1591 461 3 461 3 29 33 29 32 0 721 c0 772 1 762 -49 789 -27 14 -4999 13
-5024 -1z m4873 -784 l0 -595 -390 0 -390 0 0 144 0 144 118 4 c133 4 181 20
250 83 155 139 118 397 -71 497 l-42 23 -713 3 -713 3 -30 -30 c-40 -40 -40
-89 0 -133 l29 -33 221 -3 221 -3 0 -562 0 -562 -73 79 c-205 225 -480 347
-781 346 -298 -1 -570 -123 -773 -346 l-73 -79 0 562 0 562 221 3 221 3 29 33
c40 44 40 93 0 133 l-30 30 -713 -3 -713 -3 -42 -23 c-104 -55 -167 -160 -167
-277 0 -120 63 -218 172 -272 51 -25 70 -28 175 -32 l117 -3 0 -144 0 -144
-390 0 -390 0 0 595 0 595 2360 0 2360 0 0 -595z m-3940 0 l0 -105 -90 0
c-108 0 -145 15 -166 67 -20 46 -10 86 28 118 27 23 37 25 129 25 l99 0 0
-105z m530 -1730 c0 -1981 -3 -1877 49 -1905 27 -14 1975 -14 2002 0 52 28 49
-76 49 1905 l0 1835 165 0 165 0 0 -2033 c0 -1568 -3 -2036 -12 -2045 -17 -17
-2719 -17 -2736 0 -9 9 -12 477 -12 2045 l0 2033 165 0 165 0 0 -1835z m2852
1815 c60 -47 57 -133 -6 -171 -25 -15 -50 -19 -123 -19 l-93 0 0 105 0 105 99
0 c83 0 102 -3 123 -20z m-1587 -905 c161 -44 343 -162 442 -287 389 -488 153
-1198 -452 -1359 -112 -30 -298 -30 -410 0 -246 65 -443 225 -556 450 -64 128
-82 212 -82 376 0 124 3 150 27 230 93 307 332 530 646 600 83 19 300 13 385
-10z m-941 -1579 c441 -422 1138 -381 1534 89 l42 50 0 -592 0 -593 -850 0
-850 0 0 592 0 592 37 -45 c20 -24 60 -66 87 -93z"/>
<path d="M2495 4537 c-17 -14 -28 -36 -32 -63 -4 -36 -1 -46 24 -74 25 -28 36
-33 73 -33 37 0 48 5 73 33 25 28 28 38 24 74 -7 54 -44 86 -97 86 -26 0 -48
-8 -65 -23z"/>
<path d="M2204 2891 c-29 -18 -94 -125 -94 -156 0 -7 -18 -17 -39 -23 -46 -14
-71 -48 -71 -97 0 -46 45 -95 87 -95 23 0 32 -8 52 -45 48 -91 137 -146 248
-153 64 -4 79 -1 127 22 75 37 115 87 160 202 21 53 48 107 60 121 21 24 24
25 52 12 28 -14 29 -18 29 -79 0 -48 -6 -76 -23 -108 -31 -60 -29 -106 7 -143
32 -32 71 -38 116 -17 23 10 78 105 99 171 3 9 15 17 26 17 12 0 35 13 51 29
58 58 26 151 -56 167 -24 4 -37 14 -45 35 -16 37 -79 94 -127 115 -21 9 -66
16 -100 17 -123 2 -196 -65 -268 -246 -38 -97 -54 -117 -92 -117 -92 0 -129
99 -78 208 41 88 31 142 -30 168 -44 18 -54 18 -91 -5z"/>
</g>
</svg>
