<?xml version="1.0" standalone="no"?>
<!DOCTYPE svg PUBLIC "-//W3C//DTD SVG 20010904//EN"
 "http://www.w3.org/TR/2001/REC-SVG-20010904/DTD/svg10.dtd">
<svg version="1.0" xmlns="http://www.w3.org/2000/svg"
 width="512.000000pt" height="512.000000pt" viewBox="0 0 512.000000 512.000000"
 preserveAspectRatio="xMidYMid meet">

<g transform="translate(0.000000,512.000000) scale(0.100000,-0.100000)"
fill="#000000" stroke="none">
<path d="M3120 4924 c-39 -25 -62 -62 -68 -110 -4 -37 2 -54 42 -128 25 -47
46 -87 46 -90 0 -2 -44 7 -97 20 -176 43 -318 57 -538 51 -265 -6 -450 -40
-674 -123 -654 -243 -1150 -795 -1321 -1469 -49 -196 -63 -340 -57 -579 6
-226 26 -358 82 -544 55 -179 170 -428 232 -502 70 -84 212 -52 242 55 14 51
11 60 -73 227 -260 515 -268 1102 -21 1616 248 517 725 888 1285 1001 273 55
613 42 860 -32 l45 -14 -117 -56 c-133 -63 -158 -89 -158 -167 0 -96 85 -163
175 -139 19 6 154 68 300 139 293 143 305 152 305 240 0 40 -18 76 -153 310
-169 293 -184 310 -266 310 -25 0 -57 -8 -71 -16z"/>
<path d="M4181 3703 c-38 -19 -66 -60 -76 -110 -5 -29 5 -57 74 -196 90 -180
139 -320 171 -482 109 -568 -46 -1134 -430 -1570 -252 -287 -620 -497 -1004
-575 -268 -54 -610 -41 -856 34 l-45 13 116 56 c92 44 121 63 138 90 42 69 18
167 -49 202 -66 34 -92 26 -388 -117 -309 -150 -322 -160 -322 -247 0 -41 17
-75 153 -311 168 -291 184 -310 264 -310 86 0 138 53 138 140 -1 46 -7 66 -43
126 -23 39 -42 74 -42 77 0 3 24 -1 53 -9 206 -56 540 -80 758 -54 632 73
1178 407 1534 940 117 175 226 418 279 621 52 203 61 278 61 539 0 261 -9 336
-61 539 -47 179 -163 451 -236 552 -47 65 -119 85 -187 52z"/>
<path d="M2484 3599 c-162 -20 -317 -132 -393 -283 -42 -83 -61 -179 -61 -318
0 -117 0 -118 -23 -118 -39 0 -144 -58 -192 -106 -24 -25 -59 -75 -77 -112
l-33 -67 0 -385 c0 -357 1 -389 19 -437 39 -105 125 -191 233 -235 58 -23 62
-23 557 -26 308 -2 524 1 564 7 139 22 244 101 305 229 l32 67 0 390 0 390
-32 66 c-18 36 -53 86 -78 111 -48 49 -152 108 -190 108 -22 0 -22 4 -28 148
-6 160 -19 223 -68 308 -107 190 -314 291 -535 263z m185 -309 c43 -22 82 -62
107 -110 14 -27 19 -64 22 -162 l4 -128 -242 0 -242 0 4 128 c4 136 13 168 67
225 68 75 188 95 280 47z m432 -719 l29 -29 0 -336 0 -336 -29 -32 -29 -33
-512 0 -512 0 -29 33 -29 32 0 336 0 336 29 29 29 29 512 0 512 0 29 -29z"/>
</g>
</svg>
