<svg version="1.1" id="Layer_1" xmlns="http://www.w3.org/2000/svg" xmlns:xlink="http://www.w3.org/1999/xlink" x="0px" y="0px"
	 width="100%" viewBox="0 0 512 512" enable-background="new 0 0 512 512" xml:space="preserve">
<path fill="#000000" opacity="1.000000" stroke="none" 
	d="
M237.000000,1.000003 
	C248.020889,1.000000 259.041779,1.000000 270.678680,1.394103 
	C282.366699,2.588508 292.780518,5.908547 302.814209,10.402471 
	C319.911774,18.060211 334.019684,29.642138 345.043152,44.680210 
	C357.545197,61.735355 364.870544,80.833275 364.969604,102.239265 
	C365.095245,129.388306 365.000000,156.538361 365.000000,183.687988 
	C365.000000,185.433792 365.000000,187.179611 365.000000,189.000000 
	C376.197937,189.000000 386.687592,188.992508 397.177246,189.003433 
	C401.837738,189.008286 406.645203,188.314682 411.131378,189.211624 
	C425.311920,192.046860 437.786987,198.381607 447.141846,209.724030 
	C455.448059,219.795013 460.930176,231.254303 460.950134,244.556015 
	C461.056213,315.178192 461.013245,385.800598 460.957581,456.422913 
	C460.955017,459.658173 460.676483,462.973145 459.942993,466.114777 
	C455.694702,484.310211 445.643799,498.217438 428.734894,506.586090 
	C423.404236,509.224365 417.591888,510.889465 412.000000,513.000000 
	C308.979095,513.000000 205.958206,513.000000 102.339996,512.620728 
	C86.934067,509.840393 74.792221,502.429260 65.666245,490.914062 
	C57.175999,480.201019 52.840508,467.759979 52.889885,453.619507 
	C53.132450,384.161438 52.987263,314.702057 53.042339,245.243164 
	C53.044773,242.174332 53.435818,239.060211 54.035248,236.044586 
	C59.402340,209.043900 84.503242,188.142776 112.142929,188.949310 
	C122.794220,189.260132 133.462189,189.009842 144.122513,188.986877 
	C145.382111,188.984177 146.641312,188.801682 149.000000,188.615982 
	C149.000000,159.444641 149.023453,130.553345 148.989914,101.662109 
	C148.973648,87.644135 152.595749,74.478188 158.580780,61.973301 
	C165.015442,48.529026 173.821320,36.845646 185.283310,27.136854 
	C197.516388,16.774908 210.974060,8.931078 226.604813,4.929093 
	C230.171417,4.015930 233.540176,2.330174 237.000000,1.000003 
M136.500031,229.000000 
	C130.001648,229.000000 123.492653,228.777298 117.009048,229.086731 
	C113.347260,229.261475 109.518028,229.767059 106.127762,231.069748 
	C96.046715,234.943268 93.073357,243.550552 93.056931,253.303802 
	C92.947273,318.454193 92.966080,383.604950 93.086479,448.755310 
	C93.093513,452.559723 93.737549,456.606079 95.140503,460.118286 
	C99.038033,469.875702 107.495728,472.928680 117.064133,472.939056 
	C210.374313,473.040283 303.684692,473.022186 396.994873,472.916962 
	C400.634430,472.912842 404.481842,472.233032 407.872131,470.930328 
	C417.953094,467.056763 420.926666,458.449585 420.943085,448.696289 
	C421.052734,383.545898 421.033905,318.395142 420.913513,253.244781 
	C420.906464,249.440384 420.279175,245.383148 418.857788,241.883301 
	C414.723785,231.704254 405.859192,229.039963 395.936188,229.033310 
	C309.790833,228.975510 223.645401,229.000000 136.500031,229.000000 
M189.056870,188.253601 
	C190.459656,188.502411 191.862228,188.967316 193.265244,188.968597 
	C235.585312,189.007156 277.905396,188.999985 320.225494,188.999969 
	C321.348480,188.999969 322.471466,188.999985 324.000000,188.999985 
	C324.000000,187.017517 324.000000,185.391113 324.000000,183.764709 
	C324.000000,157.272995 323.906128,130.780792 324.049438,104.289848 
	C324.101685,94.631546 321.493927,85.734055 316.986389,77.429344 
	C302.852905,51.389923 275.000488,37.565948 244.637375,42.954010 
	C222.230057,46.930279 206.550293,59.618408 195.938339,79.333130 
	C190.621384,89.210915 189.337265,100.031754 189.145767,110.812653 
	C188.693130,136.296616 189.002625,161.794113 189.056870,188.253601 
z"/>
<path fill="#FFFFFF" opacity="1.000000" stroke="none" 
	d="
M412.468658,513.000000 
	C417.591888,510.889465 423.404236,509.224365 428.734894,506.586090 
	C445.643799,498.217438 455.694702,484.310211 459.942993,466.114777 
	C460.676483,462.973145 460.955017,459.658173 460.957581,456.422913 
	C461.013245,385.800598 461.056213,315.178192 460.950134,244.556015 
	C460.930176,231.254303 455.448059,219.795013 447.141846,209.724030 
	C437.786987,198.381607 425.311920,192.046860 411.131378,189.211624 
	C406.645203,188.314682 401.837738,189.008286 397.177246,189.003433 
	C386.687592,188.992508 376.197937,189.000000 365.000000,189.000000 
	C365.000000,187.179611 365.000000,185.433792 365.000000,183.687988 
	C365.000000,156.538361 365.095245,129.388306 364.969604,102.239265 
	C364.870544,80.833275 357.545197,61.735355 345.043152,44.680210 
	C334.019684,29.642138 319.911774,18.060211 302.814209,10.402471 
	C292.780518,5.908547 282.366699,2.588508 271.147339,1.394103 
	C351.625397,1.000000 432.250763,1.000000 512.938110,1.000000 
	C512.938110,171.666672 512.938110,342.333344 512.938110,513.000000 
	C479.569885,513.000000 446.253601,513.000000 412.468658,513.000000 
z"/>
<path fill="#FFFFFF" opacity="1.000000" stroke="none" 
	d="
M236.531342,1.000003 
	C233.540176,2.330174 230.171417,4.015930 226.604813,4.929093 
	C210.974060,8.931078 197.516388,16.774908 185.283310,27.136854 
	C173.821320,36.845646 165.015442,48.529026 158.580780,61.973301 
	C152.595749,74.478188 148.973648,87.644135 148.989914,101.662109 
	C149.023453,130.553345 149.000000,159.444641 149.000000,188.615982 
	C146.641312,188.801682 145.382111,188.984177 144.122513,188.986877 
	C133.462189,189.009842 122.794220,189.260132 112.142929,188.949310 
	C84.503242,188.142776 59.402340,209.043900 54.035248,236.044586 
	C53.435818,239.060211 53.044773,242.174332 53.042339,245.243164 
	C52.987263,314.702057 53.132450,384.161438 52.889885,453.619507 
	C52.840508,467.759979 57.175999,480.201019 65.666245,490.914062 
	C74.792221,502.429260 86.934067,509.840393 101.871338,512.620728 
	C68.350685,513.000000 34.701374,513.000000 1.026031,513.000000 
	C1.026031,342.438660 1.026031,171.877319 1.026031,1.000000 
	C79.353943,1.000000 157.708313,1.000000 236.531342,1.000003 
z"/>
<path fill="#FFFFFF" opacity="1.000000" stroke="none" 
	d="
M137.000015,229.000000 
	C223.645401,229.000000 309.790833,228.975510 395.936188,229.033310 
	C405.859192,229.039963 414.723785,231.704254 418.857788,241.883301 
	C420.279175,245.383148 420.906464,249.440384 420.913513,253.244781 
	C421.033905,318.395142 421.052734,383.545898 420.943085,448.696289 
	C420.926666,458.449585 417.953094,467.056763 407.872131,470.930328 
	C404.481842,472.233032 400.634430,472.912842 396.994873,472.916962 
	C303.684692,473.022186 210.374313,473.040283 117.064133,472.939056 
	C107.495728,472.928680 99.038033,469.875702 95.140503,460.118286 
	C93.737549,456.606079 93.093513,452.559723 93.086479,448.755310 
	C92.966080,383.604950 92.947273,318.454193 93.056931,253.303802 
	C93.073357,243.550552 96.046715,234.943268 106.127762,231.069748 
	C109.518028,229.767059 113.347260,229.261475 117.009048,229.086731 
	C123.492653,228.777298 130.001648,229.000000 137.000015,229.000000 
M252.956573,418.998962 
	C254.288651,418.999298 255.646759,418.828827 256.948700,419.027008 
	C267.332092,420.607819 277.897827,409.375122 277.174713,399.167572 
	C276.400116,388.232452 277.176178,377.196075 276.930389,366.211578 
	C276.794464,360.136108 276.421600,354.285522 283.222687,351.238983 
	C283.787750,350.985840 284.193237,350.340546 284.628632,349.839081 
	C292.709198,340.532166 295.410522,329.591217 293.943848,317.599030 
	C292.906372,309.115997 288.585419,301.977173 282.520752,296.290070 
	C273.663300,287.984100 262.609070,285.557800 250.811600,287.077667 
	C242.085922,288.201782 234.921631,292.585297 228.960327,299.104187 
	C221.264221,307.520081 219.215805,317.501068 219.964386,328.492828 
	C220.645355,338.492157 225.663879,346.266479 232.690399,352.696777 
	C234.866714,354.688416 236.072266,356.145660 236.045868,359.040863 
	C235.936523,371.028931 235.669144,383.030304 236.094406,395.004272 
	C236.507507,406.635651 239.064545,415.000305 252.956573,418.998962 
z"/>
<path fill="#FFFFFF" opacity="1.000000" stroke="none" 
	d="
M189.030396,187.769867 
	C189.002625,161.794113 188.693130,136.296616 189.145767,110.812653 
	C189.337265,100.031754 190.621384,89.210915 195.938339,79.333130 
	C206.550293,59.618408 222.230057,46.930279 244.637375,42.954010 
	C275.000488,37.565948 302.852905,51.389923 316.986389,77.429344 
	C321.493927,85.734055 324.101685,94.631546 324.049438,104.289848 
	C323.906128,130.780792 324.000000,157.272995 324.000000,183.764709 
	C324.000000,185.391113 324.000000,187.017517 324.000000,188.999985 
	C322.471466,188.999985 321.348480,188.999969 320.225494,188.999969 
	C277.905396,188.999985 235.585312,189.007156 193.265244,188.968597 
	C191.862228,188.967316 190.459656,188.502411 189.030396,187.769867 
z"/>
<path fill="#000000" opacity="1.000000" stroke="none" 
	d="
M252.516876,418.991638 
	C239.064545,415.000305 236.507507,406.635651 236.094406,395.004272 
	C235.669144,383.030304 235.936523,371.028931 236.045868,359.040863 
	C236.072266,356.145660 234.866714,354.688416 232.690399,352.696777 
	C225.663879,346.266479 220.645355,338.492157 219.964386,328.492828 
	C219.215805,317.501068 221.264221,307.520081 228.960327,299.104187 
	C234.921631,292.585297 242.085922,288.201782 250.811600,287.077667 
	C262.609070,285.557800 273.663300,287.984100 282.520752,296.290070 
	C288.585419,301.977173 292.906372,309.115997 293.943848,317.599030 
	C295.410522,329.591217 292.709198,340.532166 284.628632,349.839081 
	C284.193237,350.340546 283.787750,350.985840 283.222687,351.238983 
	C276.421600,354.285522 276.794464,360.136108 276.930389,366.211578 
	C277.176178,377.196075 276.400116,388.232452 277.174713,399.167572 
	C277.897827,409.375122 267.332092,420.607819 256.948700,419.027008 
	C255.646759,418.828827 254.288651,418.999298 252.516876,418.991638 
z"/>
</svg>