<?xml version="1.0" standalone="no"?>
<!DOCTYPE svg PUBLIC "-//W3C//DTD SVG 20010904//EN"
 "http://www.w3.org/TR/2001/REC-SVG-20010904/DTD/svg10.dtd">
<svg version="1.0" xmlns="http://www.w3.org/2000/svg"
 width="512.000000pt" height="512.000000pt" viewBox="0 0 512.000000 512.000000"
 preserveAspectRatio="xMidYMid meet">

<g transform="translate(0.000000,512.000000) scale(0.100000,-0.100000)"
fill="#000000" stroke="none">
<path d="M870 3280 c-294 -39 -548 -266 -614 -550 -20 -84 -20 -256 0 -340 60
-257 281 -476 541 -537 74 -17 166 -18 1763 -18 1897 0 1757 -6 1921 77 147
73 256 184 329 333 52 106 70 187 70 315 0 128 -18 209 -70 315 -93 191 -249
321 -462 387 l-73 23 -1675 1 c-921 1 -1700 -2 -1730 -6z m3466 -172 c187 -64
330 -217 379 -405 19 -73 19 -213 0 -286 -49 -188 -192 -341 -379 -405 l-81
-27 -1690 0 -1690 0 -88 29 c-191 62 -332 211 -382 403 -20 76 -19 225 1 294
67 226 254 389 479 419 33 4 805 7 1715 6 l1655 -1 81 -27z"/>
<path d="M998 2875 c-95 -36 -172 -116 -205 -211 -22 -66 -15 -185 17 -249 31
-63 92 -124 155 -156 43 -20 64 -24 145 -24 83 0 101 4 145 27 64 33 120 89
153 153 24 44 27 62 27 145 0 83 -3 101 -27 145 -34 66 -87 119 -151 152 -64
33 -198 42 -259 18z m190 -149 c114 -60 138 -212 46 -298 -117 -109 -304 -28
-304 132 0 103 76 180 177 180 30 0 66 -6 81 -14z"/>
<path d="M1954 2870 c-75 -30 -137 -89 -176 -168 -28 -57 -33 -76 -33 -142 0
-66 5 -85 33 -142 40 -81 102 -139 181 -169 74 -28 195 -23 259 10 66 34 128
96 159 160 37 75 40 200 6 273 -29 63 -97 134 -158 166 -70 36 -197 41 -271
12z m231 -164 c69 -53 92 -143 56 -222 -42 -92 -158 -131 -249 -85 -128 65
-130 253 -5 321 57 30 148 24 198 -14z"/>
<path d="M2950 2881 c-87 -27 -174 -104 -213 -189 -17 -36 -22 -66 -22 -132 0
-101 20 -154 86 -225 63 -69 126 -97 224 -103 65 -3 91 0 136 17 79 30 141 88
181 169 28 57 33 76 33 142 0 66 -5 85 -33 142 -60 122 -167 189 -300 187 -37
0 -78 -4 -92 -8z m180 -161 c128 -65 127 -255 -2 -321 -59 -30 -142 -24 -193
15 -139 107 -67 326 108 326 28 0 64 -8 87 -20z"/>
<path d="M3900 2874 c-86 -31 -142 -82 -191 -174 -20 -38 -24 -59 -24 -140 0
-83 3 -101 27 -145 34 -66 87 -119 151 -153 46 -24 63 -27 147 -27 111 0 167
21 235 90 69 68 90 124 90 235 0 81 -4 103 -24 145 -32 63 -93 124 -156 155
-64 32 -187 38 -255 14z m204 -158 c154 -90 89 -336 -88 -336 -108 0 -186 75
-186 180 0 141 152 228 274 156z"/>
</g>
</svg>
