<?xml version="1.0" standalone="no"?>
<!DOCTYPE svg PUBLIC "-//W3C//DTD SVG 20010904//EN"
 "http://www.w3.org/TR/2001/REC-SVG-20010904/DTD/svg10.dtd">
<svg version="1.0" xmlns="http://www.w3.org/2000/svg"
 width="512.000000pt" height="512.000000pt" viewBox="0 0 512.000000 512.000000"
 preserveAspectRatio="xMidYMid meet">

<g transform="translate(0.000000,512.000000) scale(0.100000,-0.100000)"
fill="#000000" stroke="none">
<path d="M1420 4910 c-19 -19 -20 -33 -20 -230 l0 -210 -230 0 c-217 0 -231
-1 -250 -20 -19 -19 -20 -33 -20 -519 l0 -499 -232 -4 c-226 -3 -235 -4 -288
-29 -77 -36 -124 -80 -157 -147 l-28 -57 0 -1035 0 -1035 27 -52 c34 -64 86
-115 147 -145 46 -23 51 -23 536 -28 l490 -5 5 -338 c5 -321 6 -339 24 -353
30 -21 2242 -21 2272 0 18 14 19 32 24 353 l5 338 490 5 c484 5 491 5 536 28
59 29 114 84 147 147 l27 50 3 1014 c3 1114 5 1073 -57 1158 -32 45 -96 92
-151 113 -24 9 -108 15 -267 18 l-233 4 0 499 c0 486 -1 500 -20 519 -19 19
-33 20 -250 20 l-230 0 0 210 c0 197 -1 211 -20 230 -20 20 -33 20 -1140 20
-1107 0 -1120 0 -1140 -20z m2160 -800 l0 -680 -1020 0 -1020 0 0 680 0 680
1020 0 1020 0 0 -680z m-2180 -230 l0 -450 -180 0 -180 0 0 450 0 450 180 0
180 0 0 -450z m2680 0 l0 -450 -180 0 -180 0 0 450 0 450 180 0 180 0 0 -450z
m617 -612 c18 -10 45 -35 60 -55 l28 -36 3 -1001 2 -1001 -22 -45 c-15 -30
-37 -53 -63 -67 -38 -22 -51 -23 -262 -23 l-223 0 0 405 c0 392 -1 406 -20
425 -20 20 -33 20 -1640 20 -1607 0 -1620 0 -1640 -20 -19 -19 -20 -33 -20
-425 l0 -405 -222 0 c-212 0 -225 1 -263 23 -26 14 -48 37 -63 67 l-22 44 0
989 c0 1076 -3 1023 55 1077 55 52 -57 49 2190 47 1969 -2 2092 -3 2122 -19z
m-3297 -1873 l0 -355 -180 0 -180 0 0 355 0 355 180 0 180 0 0 -355z m2180
-355 l0 -710 -1020 0 -1020 0 0 710 0 710 1020 0 1020 0 0 -710z m500 355 l0
-355 -180 0 -180 0 0 355 0 355 180 0 180 0 0 -355z"/>
<path d="M3382 4520 c-12 -5 -27 -21 -32 -35 -6 -15 -10 -122 -10 -239 0 -201
1 -215 21 -240 25 -32 77 -36 102 -8 15 16 17 49 17 255 l0 236 -26 20 c-29
23 -38 24 -72 11z"/>
<path d="M3380 3058 c-157 -44 -189 -252 -52 -339 36 -23 57 -29 101 -29 222
0 261 310 46 369 -46 13 -48 13 -95 -1z m81 -147 c20 -16 22 -23 14 -47 -9
-24 -16 -29 -45 -29 -29 0 -36 5 -45 29 -8 24 -6 31 14 47 13 10 27 19 31 19
4 0 18 -9 31 -19z"/>
<path d="M3885 3065 c-5 -2 -22 -6 -37 -9 -34 -8 -94 -59 -114 -97 -19 -39
-18 -126 4 -168 53 -106 201 -135 289 -58 20 17 42 46 49 64 18 42 18 127 0
162 -35 67 -138 124 -191 106z m63 -179 c4 -33 -13 -56 -42 -56 -30 0 -46 18
-46 52 0 54 82 57 88 4z"/>
<path d="M4330 3058 c-157 -44 -189 -252 -52 -339 36 -23 57 -29 101 -29 222
0 261 310 46 369 -46 13 -48 13 -95 -1z m81 -147 c20 -16 22 -23 14 -47 -9
-24 -16 -29 -45 -29 -29 0 -36 5 -45 29 -8 24 -6 31 14 47 13 10 27 19 31 19
4 0 18 -9 31 -19z"/>
<path d="M593 2940 c-44 -18 -56 -77 -23 -110 19 -19 33 -20 548 -20 500 0
530 1 545 18 24 26 21 75 -4 98 -20 18 -45 19 -533 21 -282 1 -521 -2 -533 -7z"/>
<path d="M1912 1527 c-28 -30 -28 -68 1 -95 l23 -22 625 0 626 0 21 23 c28 30
28 68 -1 95 l-23 22 -625 0 -626 0 -21 -23z"/>
<path d="M1912 1167 c-28 -30 -28 -68 1 -95 l23 -22 625 0 626 0 21 23 c28 30
28 68 -1 95 l-23 22 -625 0 -626 0 -21 -23z"/>
<path d="M1912 807 c-28 -30 -28 -68 1 -95 l23 -22 625 0 626 0 21 23 c28 30
28 68 -1 95 l-23 22 -625 0 -626 0 -21 -23z"/>
</g>
</svg>
