<?xml version="1.0" standalone="no"?>
<!DOCTYPE svg PUBLIC "-//W3C//DTD SVG 20010904//EN"
 "http://www.w3.org/TR/2001/REC-SVG-20010904/DTD/svg10.dtd">
<svg version="1.0" xmlns="http://www.w3.org/2000/svg"
 width="512.000000pt" height="560.000000pt" viewBox="0 0 512.000000 560.000000"
 preserveAspectRatio="xMidYMid meet">

<g transform="translate(0.000000,560.000000) scale(0.100000,-0.100000)"
fill="#000000" stroke="none">
<path d="M1905 5587 c-98 -33 -162 -93 -190 -178 -13 -39 -22 -50 -43 -54 -72
-15 -142 -40 -185 -67 -234 -148 -255 -478 -47 -737 l50 -61 -35 -45 c-19 -25
-40 -65 -46 -88 -16 -58 -6 -147 22 -196 12 -23 21 -42 18 -44 -2 -2 -56 -37
-119 -78 -855 -558 -1324 -1541 -1324 -2779 0 -239 2 -275 23 -370 118 -545
515 -787 1411 -860 495 -40 1731 -40 2240 0 295 24 607 82 772 144 407 153
611 418 659 856 21 188 -2 629 -47 908 -149 931 -587 1653 -1274 2101 -63 41
-117 76 -119 78 -3 2 6 21 18 44 28 49 38 138 22 196 -6 23 -27 63 -46 88
l-35 45 50 61 c93 116 143 250 142 380 -1 225 -134 376 -374 424 -21 4 -30 15
-43 54 -22 66 -74 124 -143 158 -49 24 -69 28 -142 28 -71 0 -104 -7 -195 -37
-152 -50 -247 -68 -365 -68 -117 0 -211 17 -365 67 -124 41 -226 51 -290 30z
m253 -132 c155 -51 283 -75 402 -75 119 0 247 24 402 75 142 46 215 45 286 -6
108 -78 70 -323 -103 -670 -32 -63 -73 -140 -92 -171 l-34 -58 -459 0 -459 0
-34 58 c-20 31 -61 108 -92 170 -145 291 -200 530 -144 622 59 96 153 112 327
55z m-453 -242 c23 -141 96 -339 196 -530 l68 -132 -187 -3 -187 -3 -34 35
c-48 50 -107 143 -132 209 -24 64 -29 172 -11 238 33 115 139 201 274 222 4 1
10 -16 13 -36z m1823 6 c101 -43 163 -124 181 -235 12 -81 -2 -164 -44 -249
-42 -86 -132 -198 -152 -190 -8 3 -93 5 -189 5 l-174 0 69 133 c100 191 173
389 196 529 6 36 7 37 38 31 18 -3 51 -14 75 -24z m2 -800 c106 -60 104 -222
-4 -273 -31 -14 -127 -16 -968 -16 -890 0 -935 1 -968 19 -52 27 -82 84 -77
147 4 58 26 93 77 123 35 20 45 21 969 21 932 0 933 0 971 -21z m-1573 -396
l372 -4 -24 -62 c-37 -100 -57 -213 -58 -332 -1 -134 20 -193 90 -255 120
-105 303 -84 390 44 42 61 53 103 53 197 0 42 3 78 6 82 3 3 25 -22 47 -56 95
-143 263 -289 428 -374 69 -35 80 -38 159 -38 96 0 127 12 186 72 77 77 97
198 50 298 -29 63 -61 92 -156 146 -103 58 -163 110 -221 192 -27 39 -49 74
-49 79 0 4 61 8 136 8 75 0 154 5 174 11 36 11 42 9 123 -40 134 -81 314 -220
437 -338 576 -552 876 -1316 906 -2308 10 -320 -15 -488 -101 -661 -96 -196
-268 -332 -528 -419 -349 -117 -797 -155 -1817 -155 -1018 0 -1468 38 -1817
155 -383 128 -578 364 -624 756 -14 126 -6 467 16 678 78 721 305 1295 697
1758 157 185 399 394 614 528 71 44 94 54 114 48 14 -3 192 -8 397 -10z m1164
-35 c27 -65 108 -175 172 -234 36 -33 103 -80 148 -104 99 -54 129 -92 129
-165 0 -93 -62 -155 -155 -155 -60 0 -158 50 -273 137 -129 98 -250 255 -318
410 -17 41 -34 76 -37 79 -8 9 -58 -83 -85 -155 -17 -47 -26 -98 -31 -179 -6
-89 -11 -118 -27 -139 -52 -69 -130 -91 -201 -54 -79 40 -102 114 -84 272 11
96 35 191 71 274 l19 45 329 0 330 0 13 -32z"/>
<path d="M1975 2848 c-383 -26 -655 -263 -655 -570 0 -144 46 -261 143 -364
70 -75 119 -112 232 -171 l80 -42 -203 -1 c-275 0 -302 -12 -302 -140 1 -182
95 -367 243 -477 227 -169 597 -219 892 -122 112 38 173 74 253 152 l63 62
-14 -45 c-8 -25 -27 -84 -42 -132 -31 -101 -29 -141 11 -179 25 -23 31 -24
203 -27 l178 -3 31 26 c27 22 40 51 78 171 25 79 50 141 55 138 5 -3 9 -11 9
-18 0 -7 13 -31 29 -54 112 -154 369 -174 504 -38 65 64 82 109 82 211 0 81
-3 95 -30 143 -35 64 -71 96 -145 131 -46 22 -69 26 -145 26 -78 0 -98 -4
-145 -27 -30 -15 -55 -26 -57 -25 -1 2 86 281 193 622 212 673 210 661 153
709 -30 26 -32 26 -208 26 -186 0 -207 -4 -231 -50 -5 -10 -100 -306 -211
-657 -110 -351 -203 -640 -205 -642 -2 -2 -4 16 -4 40 0 69 -27 166 -67 242
-68 129 -215 249 -397 324 l-70 28 233 3 c255 3 268 5 291 63 28 67 -9 242
-75 355 -81 139 -246 252 -433 295 -74 17 -208 25 -317 17z m290 -124 c154
-30 312 -139 377 -260 32 -59 58 -152 58 -206 l0 -38 -199 0 -199 0 -7 43 c-9
53 -20 74 -58 115 -79 83 -277 81 -361 -3 -61 -60 -60 -138 1 -199 44 -44 115
-78 293 -141 195 -68 299 -125 387 -211 111 -108 150 -213 140 -372 -12 -198
-145 -342 -374 -404 -114 -31 -364 -31 -478 0 -242 66 -400 206 -450 397 -8
33 -15 79 -15 102 l0 43 199 0 200 0 7 -47 c13 -96 47 -148 119 -186 31 -16
63 -22 147 -25 96 -4 112 -2 154 18 49 24 78 62 89 116 7 41 -8 103 -35 136
-27 35 -133 88 -275 139 -310 110 -445 204 -518 359 -57 120 -47 279 25 393
127 199 448 295 773 231z m1301 -106 c-18 -57 -147 -466 -287 -910 l-254 -808
-138 0 -138 0 7 23 c16 49 497 1579 530 1685 l35 112 139 0 138 0 -32 -102z
m-1427 -302 c30 -16 51 -53 51 -92 0 -31 26 -84 42 -84 6 0 9 -2 6 -5 -7 -7
-169 50 -229 80 -53 28 -73 49 -65 70 15 40 140 59 195 31z m-41 -736 c87 -37
116 -94 66 -126 -32 -22 -156 -22 -207 -1 -44 19 -55 39 -63 113 -3 33 -13 69
-20 81 -14 22 -11 21 79 -11 51 -18 116 -44 145 -56z m1505 -171 c47 -13 106
-63 123 -106 18 -42 18 -115 0 -157 -17 -41 -75 -90 -125 -105 -87 -25 -168
-7 -227 53 -153 153 9 376 229 315z"/>
</g>
</svg>
