<?xml version="1.0" standalone="no"?>
<!DOCTYPE svg PUBLIC "-//W3C//DTD SVG 20010904//EN"
 "http://www.w3.org/TR/2001/REC-SVG-20010904/DTD/svg10.dtd">
<svg version="1.0" xmlns="http://www.w3.org/2000/svg"
 width="512.000000pt" height="512.000000pt" viewBox="0 0 512.000000 512.000000"
 preserveAspectRatio="xMidYMid meet">

<g transform="translate(0.000000,512.000000) scale(0.100000,-0.100000)"
fill="#000000" stroke="none">
<path d="M1397 5109 c-106 -25 -201 -104 -251 -209 l-31 -65 0 -2275 0 -2275
31 -65 c39 -83 101 -145 184 -184 l65 -31 1165 0 1165 0 65 31 c82 39 144 101
184 184 l31 65 0 2275 0 2275 -31 65 c-40 83 -102 145 -184 184 l-65 31 -1145
2 c-646 1 -1161 -3 -1183 -8z m2029 -234 c49 -20 70 -71 50 -119 -17 -40 -42
-56 -89 -56 -95 0 -122 137 -34 175 40 18 32 18 73 0z m-366 -80 l0 -55 -500
0 -500 0 0 55 0 55 500 0 500 0 0 -55z m670 -2065 l0 -1760 -1170 0 -1170 0 0
1760 0 1760 1170 0 1170 0 0 -1760z m-720 -2190 l0 -140 -450 0 -450 0 0 140
0 140 450 0 450 0 0 -140z"/>
</g>
</svg>
