<?xml version="1.0" standalone="no"?>
<!DOCTYPE svg PUBLIC "-//W3C//DTD SVG 20010904//EN"
 "http://www.w3.org/TR/2001/REC-SVG-20010904/DTD/svg10.dtd">
<svg version="1.0" xmlns="http://www.w3.org/2000/svg"
 width="512.000000pt" height="512.000000pt" viewBox="0 0 512.000000 512.000000"
 preserveAspectRatio="xMidYMid meet">

<g transform="translate(0.000000,512.000000) scale(0.100000,-0.100000)"
fill="#000000" stroke="none">
<path d="M1275 3840 l-1280 -1280 1282 -1282 1283 -1283 220 220 c121 121 220
224 220 230 0 5 -402 412 -892 902 l-893 893 1953 0 1952 0 0 320 0 320 -1952
0 -1953 0 893 893 c490 490 892 897 892 902 0 10 -430 445 -440 445 -3 0 -581
-576 -1285 -1280z"/>
</g>
</svg>
